<?xml version="1.0" encoding="utf-8"?>
<!-- Generator: Adobe Illustrator 28.1.0, SVG Export Plug-In . SVG Version: 6.00 Build 0)  -->
<svg version="1.1" xmlns="http://www.w3.org/2000/svg" xmlns:xlink="http://www.w3.org/1999/xlink" x="0px" y="0px"
	 viewBox="0 0 814.4 64" style="enable-background:new 0 0 814.4 64;" xml:space="preserve">
<style type="text/css">
	.st0{fill:#29A3DA;}
	.st1{fill:url(#SVGID_1_);}
	.st2{fill:url(#SVGID_00000041979255141698864710000010961576540376484998_);}
</style>
<g id="Content">
</g>
<g id="wordmark">
</g>
<g id="Infinity_mark">
	<g>
		<path class="st0" d="M353.2,53.2c-9.3,0-19-6-23.8-10.4c-5.2-4.8-19.6-20.4-19.7-20.5C300.2,11.7,287.5,0,274.9,0
			c-15.3,0-28.6,10.6-32,24.6c0.3-0.9,5.1-13.7,23.3-13.7c9.3,0,19,6,23.8,10.4c5.2,4.8,19.6,20.4,19.7,20.5
			c9.4,10.5,22.1,22.2,34.8,22.2c15.3,0,28.6-10.6,32-24.6C376.3,40.3,371.4,53.2,353.2,53.2z"/>
		<linearGradient id="SVGID_1_" gradientUnits="userSpaceOnUse" x1="291.9482" y1="59.8138" x2="247.3733" y2="13.6552">
			<stop  offset="0.2195" style="stop-color:#E51E79"/>
			<stop  offset="0.892" style="stop-color:#522780"/>
		</linearGradient>
		<path class="st1" d="M309.7,41.8c0,0-4.2-4.5-8.8-9.4c-2.5,3-6.1,7-10.3,10.7c-7.8,6.8-12.8,8.2-15.7,8.2
			c-10.9,0-19.8-8.6-19.8-19.2c0-10.5,8.9-19.2,19.8-19.2c0.4,0,0.9,0,1.5,0.1c-3.3-1.3-6.8-2.1-10.2-2.1
			c-18.2,0-23.1,12.8-23.3,13.7c0,0,0,0,0,0c-0.6,2.4-0.9,4.9-0.9,7.4c0,17.6,14.6,32,32.7,32c7.6,0,16-3.9,24.8-11.5
			c4.1-3.6,7.7-7.5,10.4-10.6C309.8,41.8,309.7,41.8,309.7,41.8z"/>
		
			<linearGradient id="SVGID_00000024714749200939817190000012674593317676527747_" gradientUnits="userSpaceOnUse" x1="973.5957" y1="924.6713" x2="929.0208" y2="878.5126" gradientTransform="matrix(-1 0 0 -1 1301.0081 928.8852)">
			<stop  offset="0.21" style="stop-color:#E95A24"/>
			<stop  offset="0.6841" style="stop-color:#F3A83B"/>
		</linearGradient>
		<path style="fill:url(#SVGID_00000024714749200939817190000012674593317676527747_);" d="M309.7,22.2c0,0,4.2,4.5,8.8,9.4
			c2.5-3,6.1-7,10.3-10.7c7.8-6.8,12.8-8.2,15.7-8.2c10.9,0,19.8,8.6,19.8,19.2c0,10.5-8.9,19.2-19.8,19.2c-0.4,0-0.9,0-1.5-0.1
			c3.3,1.3,6.8,2.1,10.2,2.1c18.2,0,23.1-12.8,23.3-13.7c0,0,0,0,0,0c0.6-2.4,0.9-4.9,0.9-7.4c0-17.6-14.8-32-32.9-32
			C337,0,328.7,3.9,320,11.5c-4.1,3.6-7.7,7.5-10.4,10.6C309.6,22.2,309.7,22.2,309.7,22.2z"/>
	</g>
	<g>
		<path d="M401.9,43.4V16.6h7.2v26.8H401.9z"/>
		<path d="M431.4,43.4l-9.3-15.9v15.9h-7V16.6h8.2l8.4,14.5V16.6h7v26.8H431.4z"/>
		<path d="M457.3,23.3v20.1h-7.1V23.3h-7.7v-6.7H465v6.7H457.3z"/>
		<path d="M468.8,43.4V16.6h17.2v6.1h-10.1V27h9.2v5.9h-9.2v4.3H486v6.2H468.8z"/>
		<path d="M491,43.4V16.6h11.3c5.4,0,9,3.6,9,8.6c0,3.6-2,6.3-5,7.5l5.1,10.7h-7.7l-4.2-9.7h-1.5v9.7H491z M501,28.2
			c2.1,0,3.2-1.2,3.2-2.9s-1.1-2.9-3.2-2.9h-2.9v5.8H501z"/>
		<path d="M532.2,43.4l-9.3-15.9v15.9h-7V16.6h8.2l8.4,14.5V16.6h7v26.8H532.2z"/>
		<path d="M545.4,43.4V16.6h17.2v6.1h-10.1V27h9.2v5.9h-9.2v4.3h10.2v6.2H545.4z"/>
		<path d="M581.5,23.3v20.1h-7.1V23.3h-7.7v-6.7h22.6v6.7H581.5z"/>
		<path d="M606.6,30c0,4.5,3.2,7,6.4,7c3.7,0,5.3-2.3,5.9-4.2l6.7,1.9c-1.1,4-4.6,9.2-12.5,9.2c-7.4,0-13.7-5.4-13.7-13.9
			c0-8.5,6.4-14,13.6-14c7.7,0,11.2,4.7,12.3,8.7l-6.5,2.2c-0.5-1.8-1.9-4.1-5.7-4.1C609.9,22.8,606.6,25.1,606.6,30z"/>
		<path d="M641.5,16c7.4,0,13.8,5.3,13.8,14s-6.4,14-13.8,14s-13.8-5.3-13.8-14S634.1,16,641.5,16z M641.5,37.2
			c3.1,0,6.5-2.2,6.5-7.2c0-4.9-3.3-7.1-6.5-7.1S635,25.1,635,30C635,34.9,638.4,37.2,641.5,37.2z"/>
		<path d="M683.3,43.4V26.8l-5.9,16.6h-5.6L666,27v16.4h-6.7V16.6h9.4l6,16.3l5.7-16.3h9.7v26.8H683.3z"/>
		<path d="M703.1,34.3v9.1h-7V16.6h10.7c5.6,0,9.4,3.7,9.4,8.8c0,5.3-3.8,8.8-9.4,8.8H703.1z M705.9,28.4c1.9,0,3.2-1.1,3.2-2.9
			c0-1.9-1.4-2.9-3.2-2.9h-2.7v5.9H705.9z"/>
		<path d="M719.9,33.6v-17h7.1v16.7c0,2.6,1.4,4,3.7,4s3.7-1.4,3.7-4V16.6h7.1v17c0,6.7-4.5,10.4-10.7,10.4
			C724.4,44,719.9,40.3,719.9,33.6z"/>
		<path d="M759.9,23.3v20.1h-7.1V23.3h-7.7v-6.7h22.6v6.7H759.9z"/>
		<path d="M771.5,43.4V16.6h17.2v6.1h-10.1V27h9.2v5.9h-9.2v4.3h10.2v6.2H771.5z"/>
		<path d="M794,43.4V16.6h11.3c5.4,0,9,3.6,9,8.6c0,3.6-2,6.3-5,7.5l5.1,10.7h-7.7l-4.2-9.7H801v9.7H794z M803.9,28.2
			c2.1,0,3.2-1.2,3.2-2.9s-1.1-2.9-3.2-2.9H801v5.8H803.9z"/>
	</g>
	<g>
		<path d="M10.2,12.8c5.9,0,9.4,3.5,9.4,8.4c0,3.3-1.9,5.7-4.7,6.7c3.6,0.9,5.6,4,5.6,7.5c0,4.9-3.9,8.5-9.6,8.5H0V12.8H10.2z
			 M9.7,26.4c3.5,0,5.5-2.1,5.5-5c0-2.9-2.2-4.9-5.7-4.9H4.3v9.9H9.7z M10.3,40.2c3.5,0,5.9-1.9,5.9-5c0-3-1.9-5.1-5.7-5.1H4.3v10.1
			H10.3z"/>
		<path d="M33.7,44.6c-4.9,0-7.9-3.7-7.9-8.5V22.8h4.1v12.7c0,2.9,1.3,5.5,4.8,5.5c3.3,0,5-2.2,5-5.4V22.8h4.1v17.2
			c0,1.7,0.1,3.2,0.2,3.9h-4C40,43.5,40,42.3,40,41.4C38.8,43.6,36.2,44.6,33.7,44.6z"/>
		<path d="M52.6,11.8c1.7,0,3,1.3,3,3c0,1.6-1.3,2.9-3,2.9c-1.6,0-2.9-1.3-2.9-2.9C49.7,13.1,51,11.8,52.6,11.8z M50.6,44V22.8h4.1
			V44H50.6z"/>
		<path d="M61.4,44V12.1h4.1V44H61.4z"/>
		<path d="M78,22.8h4.6v3.7H78v11c0,1.9,0.8,2.9,2.9,2.9c0.5,0,1.3-0.1,1.6-0.2v3.5c-0.4,0.1-1.4,0.4-2.8,0.4c-3.6,0-5.9-2.2-5.9-6
			V26.6h-4v-3.7h1.1c2.3,0,3.3-1.4,3.3-3.3v-3.4H78V22.8z"/>
		<path d="M118.8,33.4c0,6.5-4.5,11.3-10.8,11.3c-6.3,0-10.8-4.8-10.8-11.3c0-6.4,4.5-11.2,10.8-11.2
			C114.3,22.2,118.8,26.9,118.8,33.4z M114.6,33.4c0-4.9-3.1-7.5-6.6-7.5c-3.5,0-6.6,2.6-6.6,7.5c0,4.9,3.1,7.6,6.6,7.6
			C111.5,40.9,114.6,38.3,114.6,33.4z"/>
		<path d="M128.2,44h-4.1V22.8h4v3c1.5-2.6,4-3.7,6.5-3.7c5.1,0,7.6,3.7,7.6,8.4V44h-4.1V31.3c0-2.9-1.2-5.3-4.9-5.3
			c-3.3,0-4.9,2.6-4.9,5.8V44z"/>
		<path d="M164.7,22.8h4.6v3.7h-4.6v11c0,1.9,0.8,2.9,2.9,2.9c0.5,0,1.3-0.1,1.6-0.2v3.5c-0.4,0.1-1.4,0.4-2.8,0.4
			c-3.6,0-5.9-2.2-5.9-6V26.6h-4v-3.7h1.1c2.3,0,3.3-1.4,3.3-3.3v-3.4h3.8V22.8z"/>
		<path d="M178.3,44h-4.1V12.1h4.1v13.2c1.5-2.2,4-3.1,6.4-3.1c5.1,0,7.6,3.7,7.6,8.4V44h-4.1V31.3c0-2.9-1.2-5.3-4.9-5.3
			c-3.2,0-4.8,2.5-4.9,5.6V44z"/>
		<path d="M217.5,37.9c-1.2,3.7-4.6,6.7-9.5,6.7c-5.7,0-10.6-4.1-10.6-11.3c0-6.6,4.8-11.2,10.1-11.2c6.5,0,10.2,4.5,10.2,11.1
			c0,0.5,0,1.1-0.1,1.3h-15.9c0.1,3.8,2.8,6.4,6.4,6.4c3.4,0,5.1-1.9,5.9-4.3L217.5,37.9z M213.4,31.2c-0.1-3-2.1-5.4-5.8-5.4
			c-3.5,0-5.6,2.7-5.8,5.4H213.4z"/>
	</g>
</g>
</svg>
